<svg width="247" height="47" viewBox="0 0 247 47" fill="none" xmlns="http://www.w3.org/2000/svg">
<path d="M10.856 33.744C13 33.744 14.664 33.248 15.848 32.256C17.032 31.232 17.624 29.76 17.624 27.84C17.624 26.24 17.192 24.864 16.328 23.712C15.496 22.528 14.136 21.68 12.248 21.168L8.408 20.112C5.88 19.408 4.056 18.32 2.936 16.848C1.816 15.376 1.256 13.6 1.256 11.52C1.256 9.984 1.56 8.56 2.168 7.248C2.776 5.936 3.768 4.88 5.144 4.08C6.552 3.28 8.456 2.88 10.856 2.88C12.232 2.88 13.688 3.056 15.224 3.408C16.792 3.728 18.344 4.256 19.88 4.992L18.824 7.68C17.288 6.944 15.864 6.416 14.552 6.096C13.24 5.776 12.008 5.616 10.856 5.616C8.808 5.616 7.224 6.064 6.104 6.96C4.984 7.856 4.424 9.296 4.424 11.28C4.424 12.656 4.792 13.856 5.528 14.88C6.264 15.872 7.608 16.64 9.56 17.184L13.4 18.24C15.864 18.912 17.704 20.032 18.92 21.6C20.168 23.168 20.792 25.12 20.792 27.456C20.792 30.112 20.008 32.288 18.44 33.984C16.904 35.648 14.376 36.48 10.856 36.48C9.352 36.48 7.752 36.304 6.056 35.952C4.36 35.6 2.664 35.04 0.968 34.272L1.976 31.632C3.608 32.4 5.128 32.944 6.536 33.264C7.944 33.584 9.384 33.744 10.856 33.744ZM36.3931 36.48C35.4011 36.48 34.3931 36.368 33.3691 36.144C32.3771 35.952 31.3851 35.664 30.3931 35.28V46.224H27.5131V12.624H30.2491V15.936C31.6891 14.624 33.0651 13.664 34.3771 13.056C35.6891 12.448 37.0331 12.144 38.4091 12.144C40.8731 12.144 42.7451 13.088 44.0251 14.976C45.3371 16.832 45.9931 19.472 45.9931 22.896V25.776C45.9931 29.04 45.1771 31.648 43.5451 33.6C41.9131 35.52 39.5291 36.48 36.3931 36.48ZM37.8331 14.88C36.8091 14.88 35.7371 15.136 34.6171 15.648C33.5291 16.128 32.1211 17.168 30.3931 18.768V32.496C32.3771 33.392 34.3291 33.84 36.2491 33.84C38.6491 33.84 40.3611 33.12 41.3851 31.68C42.4411 30.24 42.9691 28.272 42.9691 25.776V22.896C42.9691 20.144 42.5531 18.128 41.7211 16.848C40.8891 15.536 39.5931 14.88 37.8331 14.88ZM57.1186 5.952H53.6626V2.448H57.1186V5.952ZM56.8306 36H53.9506V12.624H56.8306V36ZM80.6386 36L73.4866 24.432C72.7826 25.136 72.0466 25.856 71.2786 26.592C70.5106 27.296 69.6946 28.016 68.8306 28.752V36H65.9506V0.48H68.8306V25.44C71.1026 23.36 73.1346 21.296 74.9266 19.248C76.7186 17.168 78.3666 14.96 79.8706 12.624H83.1346C81.9506 14.512 80.7666 16.24 79.5826 17.808C78.3986 19.344 77.0546 20.912 75.5506 22.512L84.1426 36H80.6386ZM105.57 34.608C104.258 35.28 102.882 35.76 101.442 36.048C100.034 36.336 98.7538 36.48 97.6018 36.48C94.3378 36.48 91.9058 35.536 90.3058 33.648C88.7378 31.76 87.9538 29.12 87.9538 25.728V22.848C87.9538 19.616 88.7538 17.024 90.3538 15.072C91.9538 13.12 94.2578 12.144 97.2657 12.144C99.6338 12.144 101.618 12.848 103.218 14.256C104.85 15.664 105.666 17.792 105.666 20.64C105.666 21.952 105.474 23.456 105.09 25.152H90.8818V25.728C90.8818 28.352 91.4098 30.368 92.4658 31.776C93.5218 33.152 95.2338 33.84 97.6018 33.84C98.5618 33.84 99.6658 33.712 100.914 33.456C102.194 33.2 103.426 32.8 104.61 32.256L105.57 34.608ZM97.2657 14.784C95.1218 14.784 93.5218 15.488 92.4658 16.896C91.4098 18.272 90.8818 20.176 90.8818 22.608H102.642C102.706 22.192 102.754 21.808 102.786 21.456C102.818 21.072 102.834 20.72 102.834 20.4C102.834 18.416 102.274 16.992 101.154 16.128C100.066 15.232 98.7698 14.784 97.2657 14.784ZM119.402 33.84C121.13 33.84 122.538 33.424 123.626 32.592C124.746 31.728 125.434 30.608 125.69 29.232C125.946 27.824 125.626 26.304 124.73 24.672L127.082 23.232L135.146 36H131.786L127.946 29.808C127.85 31.696 127.05 33.28 125.546 34.56C124.042 35.84 121.994 36.48 119.402 36.48C116.554 36.48 114.346 35.728 112.778 34.224C111.242 32.688 110.474 30.672 110.474 28.176C110.474 26 111.034 24.224 112.154 22.848C113.306 21.472 114.938 20.144 117.05 18.864C113.978 16.016 112.442 13.104 112.442 10.128C112.442 8.048 113.13 6.32 114.506 4.944C115.914 3.568 117.914 2.88 120.506 2.88C122.874 2.88 124.746 3.52 126.122 4.8C127.53 6.048 128.234 7.856 128.234 10.224C128.234 12.368 127.69 14.096 126.602 15.408C125.546 16.72 124.17 17.872 122.474 18.864L119.066 20.832C117.114 21.952 115.69 23.072 114.794 24.192C113.93 25.28 113.498 26.608 113.498 28.176C113.498 30.128 114.058 31.568 115.178 32.496C116.33 33.392 117.738 33.84 119.402 33.84ZM115.418 10.128C115.418 11.152 115.69 12.272 116.234 13.488C116.81 14.672 117.834 16.016 119.306 17.52L121.13 16.416C122.346 15.68 123.338 14.832 124.106 13.872C124.874 12.912 125.258 11.664 125.258 10.128C125.258 8.464 124.81 7.264 123.914 6.528C123.05 5.792 121.93 5.424 120.554 5.424C119.05 5.424 117.818 5.824 116.858 6.624C115.898 7.392 115.418 8.56 115.418 10.128ZM160.144 33.6C159.152 34.304 157.84 34.96 156.208 35.568C154.576 36.176 152.592 36.48 150.256 36.48C146.576 36.48 143.744 35.28 141.76 32.88C139.776 30.48 138.784 27.296 138.784 23.328V15.984C138.784 11.792 139.776 8.56 141.76 6.288C143.776 4.016 146.624 2.88 150.304 2.88C151.776 2.88 153.312 3.04 154.912 3.36C156.544 3.68 158.08 4.176 159.52 4.848L158.464 7.488C157.088 6.88 155.712 6.432 154.336 6.144C152.96 5.856 151.616 5.712 150.304 5.712C144.8 5.712 142.048 9.136 142.048 15.984V23.328C142.048 26.56 142.752 29.104 144.16 30.96C145.6 32.816 147.712 33.744 150.496 33.744C153.12 33.744 155.36 33.168 157.216 32.016V22.272H150.64V19.44H160.144V33.6ZM179.895 15.024C178.551 15.024 177.207 15.28 175.863 15.792C174.519 16.304 172.951 17.44 171.159 19.2V36H168.279V12.624H171.015V16.512C172.647 14.816 174.167 13.664 175.575 13.056C176.983 12.448 178.423 12.144 179.895 12.144V15.024ZM201.904 36.24C200.592 36.24 199.504 35.92 198.64 35.28C197.776 34.608 197.264 33.728 197.104 32.64C195.376 34.176 193.856 35.2 192.544 35.712C191.232 36.224 190 36.48 188.848 36.48C186.8 36.48 185.28 35.824 184.288 34.512C183.328 33.168 182.848 31.568 182.848 29.712C182.848 28.464 183.072 27.344 183.52 26.352C184 25.36 184.784 24.576 185.872 24C186.96 23.392 188.448 23.088 190.336 23.088C191.2 23.088 192.208 23.152 193.359 23.28C194.512 23.376 195.632 23.52 196.72 23.712V20.256C196.72 18.176 196.32 16.752 195.52 15.984C194.72 15.184 193.472 14.784 191.776 14.784C190.624 14.784 189.488 14.944 188.368 15.264C187.248 15.552 186.08 15.984 184.864 16.56L183.855 14.208C185.168 13.536 186.464 13.024 187.743 12.672C189.056 12.32 190.4 12.144 191.776 12.144C193.92 12.144 195.536 12.496 196.624 13.2C197.744 13.872 198.512 14.784 198.928 15.936C199.344 17.088 199.552 18.368 199.552 19.776V30.624C199.552 31.52 199.696 32.24 199.984 32.784C200.304 33.328 200.912 33.6 201.808 33.6H202.384V36.24H201.904ZM185.824 29.712C185.824 30.992 186.112 32.016 186.688 32.784C187.296 33.552 188.16 33.936 189.28 33.936C190.176 33.936 191.216 33.648 192.4 33.072C193.616 32.496 195.056 31.456 196.72 29.952V26.256C195.6 26.064 194.448 25.92 193.264 25.824C192.112 25.696 191.152 25.632 190.384 25.632C188.784 25.632 187.616 25.968 186.88 26.64C186.176 27.28 185.824 28.304 185.824 29.712ZM210.322 22.848V25.728C210.322 28.352 210.818 30.368 211.81 31.776C212.802 33.152 214.386 33.84 216.562 33.84C217.586 33.84 218.626 33.712 219.682 33.456C220.738 33.168 221.81 32.768 222.898 32.256L223.858 34.608C221.426 35.856 218.914 36.48 216.322 36.48C213.346 36.48 211.09 35.536 209.554 33.648C208.05 31.76 207.298 29.12 207.298 25.728V22.848C207.298 19.488 208.05 16.864 209.554 14.976C211.09 13.088 213.346 12.144 216.322 12.144C217.442 12.144 218.626 12.288 219.874 12.576C221.122 12.864 222.306 13.296 223.426 13.872L222.466 16.272C221.506 15.824 220.53 15.472 219.538 15.216C218.546 14.928 217.554 14.784 216.562 14.784C214.386 14.784 212.802 15.472 211.81 16.848C210.818 18.224 210.322 20.224 210.322 22.848ZM246.335 34.608C245.023 35.28 243.647 35.76 242.207 36.048C240.799 36.336 239.519 36.48 238.367 36.48C235.103 36.48 232.671 35.536 231.071 33.648C229.503 31.76 228.719 29.12 228.719 25.728V22.848C228.719 19.616 229.519 17.024 231.119 15.072C232.719 13.12 235.023 12.144 238.031 12.144C240.399 12.144 242.383 12.848 243.983 14.256C245.615 15.664 246.431 17.792 246.431 20.64C246.431 21.952 246.239 23.456 245.855 25.152H231.647V25.728C231.647 28.352 232.175 30.368 233.231 31.776C234.287 33.152 235.999 33.84 238.367 33.84C239.327 33.84 240.431 33.712 241.679 33.456C242.959 33.2 244.191 32.8 245.375 32.256L246.335 34.608ZM238.031 14.784C235.887 14.784 234.287 15.488 233.231 16.896C232.175 18.272 231.647 20.176 231.647 22.608H243.407C243.471 22.192 243.519 21.808 243.551 21.456C243.583 21.072 243.599 20.72 243.599 20.4C243.599 18.416 243.039 16.992 241.919 16.128C240.831 15.232 239.535 14.784 238.031 14.784Z" fill="black"/>
</svg>
